<svg id="fbdcd0ea-ede6-4d42-ae95-661cfd7d051a" data-name="Layer 1" xmlns="http://www.w3.org/2000/svg" viewBox="0 0 745 572"><title>Artboard 1</title><path d="M739.4,351.1S596,28.9,462.5,75.8c-10.3,3.6-26.3,10.8-35,.2-16.9-20.6-28.7-46.5-47.9-64.9-2.1-1.9-3.7-3.4-6.4-3.8V7.1h-1.4v.2c-2.7.4-4.3,1.9-6.4,3.8-19.2,18.4-31,44.3-47.9,64.9-8.7,10.6-24.7,3.4-35-.2C149,28.9,5.6,351.1,5.6,351.1S124.1,212.2,233,212.2c30.4,0,49.9,11,61.6,43.6,9.8,27.5,3.6,48.8-9.5,86.9-16.2,47.2-37.1,109.5-62.2,180L353.9,265l7.2-14.6-28.6-57,14.8-5.2,22.3,45,22.3-45,14.8,5.2-28.6,57,7.6,14.4L520.2,522.5h.1c-25.1-70.6-44.1-132.5-60.4-179.8-13.1-38.1-19.3-59.4-9.5-86.9,11.7-32.6,31.2-43.6,61.6-43.6,108.9,0,227.4,138.9,227.4,138.9" style="fill:#1d1d1b"/><polygon points="368.2 466.8 333.7 564.9 403.8 564.9 368.2 466.8" style="fill:#1d1d1b"/></svg>