<svg id="0605fb50-5c6b-44b8-bbb6-a02322104f26" data-name="Layer 1" xmlns="http://www.w3.org/2000/svg" viewBox="0 0 637.3 290"><title>Artboard 1</title><path d="M441,117.2S393.2,9.8,348.7,25.5c-3.5,1.2-8.8,3.6-11.7,0-5.6-6.8-9.6-15.5-16-21.6a4.6,4.6,0,0,0-2.1-1.3h-.5a4.6,4.6,0,0,0-2.1,1.3c-6.4,6.1-10.3,14.8-16,21.6-2.9,3.6-8.2,1.2-11.6,0-44.5-15.7-92.3,91.7-92.3,91.7S235.9,71,272.2,71c10.1,0,16.6,3.6,20.5,14.5,3.3,9.2,1.2,16.3-3.2,29-5.4,15.7-12.3,36.4-20.7,60l43.7-86,2.4-4.8-9.6-19,5-1.8L317.7,78l7.4-15.1,5,1.8-9.6,19,2.6,4.8,44.8,85.9h0c-8.3-23.6-14.7-44.2-20.1-59.9-4.4-12.7-6.4-19.8-3.2-29C348.5,74.6,355,71,365.2,71c36.3,0,75.8,46.2,75.8,46.2" style="fill:#1d1d1b"/><polygon points="317.2 155.8 305.7 188.5 329.1 188.5 317.2 155.8" style="fill:#1d1d1b"/><path d="M16.6,224.4a3.6,3.6,0,0,0-1.4,2.9,3.5,3.5,0,0,0,1.7,2.9c1.1.7,3.6,1.5,7.5,2.5a21.9,21.9,0,0,1,9.2,4.3c2.2,2,3.3,4.8,3.3,8.5a11.2,11.2,0,0,1-4.2,9.1,16.9,16.9,0,0,1-11,3.5c-6.6,0-12.5-2.5-17.8-7.3L9.4,244c4.5,3.9,8.6,5.9,12.4,5.9a6.6,6.6,0,0,0,4-1.1,3.6,3.6,0,0,0,1.5-3,3.7,3.7,0,0,0-1.5-3,24,24,0,0,0-6.2-2.2c-4.8-1.1-8.3-2.6-10.6-4.5s-3.3-4.7-3.3-8.6a11,11,0,0,1,4.2-9.2,17.5,17.5,0,0,1,10.6-3.2,23.9,23.9,0,0,1,8.3,1.5,22.4,22.4,0,0,1,7.3,4l-4.7,6.8a17.8,17.8,0,0,0-11.2-4.1,5.2,5.2,0,0,0-3.6,1.1" style="fill:#1d1d1b"/><polygon points="99.2 216.1 91 240 83.7 216.1 74 216.1 66.6 240 58.4 216.1 48.4 216.1 62.9 257.6 69.8 257.6 78.8 228.7 87.9 257.6 94.8 257.6 109.3 216.1 99.2 216.1" style="fill:#1d1d1b"/><path d="M138,228.4l5.1,12.1H132.8Zm-4.5-12.3-18,41.5h9.9l3.8-9h17.5l3.8,9h9.9l-18-41.5Z" style="fill:#1d1d1b"/><polygon points="174.1 216.1 174.1 257.6 201.1 257.6 201.1 249.3 183.4 249.3 183.4 216.1 174.1 216.1" style="fill:#1d1d1b"/><polygon points="216.8 216.1 216.8 257.6 243.7 257.6 243.7 249.3 226 249.3 226 216.1 216.8 216.1" style="fill:#1d1d1b"/><path d="M290.1,236.6a13.6,13.6,0,0,0-3.6-9.5,11.5,11.5,0,0,0-8.8-3.9,11.3,11.3,0,0,0-8.7,3.9,13.6,13.6,0,0,0-3.6,9.5A13.1,13.1,0,0,0,269,246a11.3,11.3,0,0,0,8.7,3.9,11.5,11.5,0,0,0,8.8-3.9,13.1,13.1,0,0,0,3.6-9.4m3.1,15.3a22.7,22.7,0,0,1-31,0,21.7,21.7,0,0,1,0-30.6,22.5,22.5,0,0,1,31,0,21.7,21.7,0,0,1,0,30.6" style="fill:#1d1d1b"/><polygon points="361.2 216.1 352.9 240 345.6 216.1 335.9 216.1 328.6 240 320.4 216.1 310.3 216.1 324.8 257.6 331.7 257.6 340.7 228.7 349.8 257.6 356.7 257.6 371.2 216.1 361.2 216.1" style="fill:#1d1d1b"/><polygon points="385.1 216.1 385.1 257.6 394.3 257.6 394.3 241.3 412.6 241.3 412.6 233.2 394.3 233.2 394.3 224.2 413.6 224.2 413.6 216.1 385.1 216.1" style="fill:#1d1d1b"/><rect x="430.3" y="216.1" width="9.3" height="41.53" style="fill:#1d1d1b"/><polygon points="458.7 216.1 458.7 257.6 489.3 257.6 489.3 249.4 468 249.4 468 240.8 486.6 240.8 486.6 232.9 468 232.9 468 224.3 488.7 224.3 488.7 216.1 458.7 216.1" style="fill:#1d1d1b"/><polygon points="506.5 216.1 506.5 257.6 533.5 257.6 533.5 249.3 515.8 249.3 515.8 216.1 506.5 216.1" style="fill:#1d1d1b"/><path d="M574.1,246.2c2.2-2.1,3.4-5.3,3.4-9.3s-1.2-7.2-3.4-9.4-5.8-3.3-10.5-3.3h-5.2v25.2h5.9c4.2,0,7.5-1.1,9.8-3.2m6.8-24.7c3.9,3.6,5.9,8.7,5.9,15.1s-1.9,11.6-5.8,15.4-9.7,5.6-17.7,5.6H549.1V216.1h14.7q11.1,0,17.1,5.4" style="fill:#1d1d1b"/><path d="M613.1,224.4a3.8,3.8,0,0,0-1.3,2.9,3.6,3.6,0,0,0,1.6,2.9c1.1.7,3.6,1.5,7.6,2.5a22.5,22.5,0,0,1,9.2,4.3c2.1,2,3.2,4.8,3.2,8.5a11.2,11.2,0,0,1-4.2,9.1c-2.7,2.3-6.4,3.5-11,3.5a25.7,25.7,0,0,1-17.7-7.3L606,244c4.5,3.9,8.6,5.9,12.4,5.9a6.8,6.8,0,0,0,4-1.1,3.7,3.7,0,0,0-.1-6c-1-.7-3-1.4-6.1-2.2-4.8-1.1-8.4-2.6-10.6-4.5s-3.4-4.7-3.4-8.6a11,11,0,0,1,4.3-9.2,17.3,17.3,0,0,1,10.6-3.2,24.3,24.3,0,0,1,8.3,1.5,22.4,22.4,0,0,1,7.3,4l-4.7,6.8a18,18,0,0,0-11.2-4.1,5.4,5.4,0,0,0-3.7,1.1" style="fill:#1d1d1b"/><path d="M101.5,275.8h1.2v10.5h5.1v1h-6.3Z" style="fill:#1d1d1b"/><path d="M120.8,285.4a3.3,3.3,0,0,0,2.7,1,3.3,3.3,0,0,0,2.6-1,3.7,3.7,0,0,0,1-2.8v-6.8h1.1v6.8a4.8,4.8,0,0,1-1.2,3.5,4.6,4.6,0,0,1-3.5,1.3,4.4,4.4,0,0,1-4.8-4.8v-6.8h1.1v6.8A3.7,3.7,0,0,0,120.8,285.4Z" style="fill:#1d1d1b"/><path d="M139.4,275.8h1.3l3.4,4.6,3.3-4.6h1.3l-3.9,5.5,4.2,6h-1.3l-3.6-5-3.7,5h-1.3l4.3-5.9Z" style="fill:#1d1d1b"/><path d="M162.2,285.4a3.3,3.3,0,0,0,2.6,1,3.3,3.3,0,0,0,2.7-1,3.7,3.7,0,0,0,1-2.8v-6.8h1.1v6.8a4.4,4.4,0,0,1-4.8,4.8,4.6,4.6,0,0,1-3.5-1.3,4.8,4.8,0,0,1-1.2-3.5v-6.8h1.1v6.8A3.7,3.7,0,0,0,162.2,285.4Z" style="fill:#1d1d1b"/><path d="M189.5,287.3l-2.5-3.7h-3.9v3.7h-1.2V275.8h4.3a4.9,4.9,0,0,1,3.4,1,3.4,3.4,0,0,1,1.2,2.8,4.3,4.3,0,0,1-.7,2.4,3.9,3.9,0,0,1-2,1.3l2.8,4Zm-3.3-4.7a4,4,0,0,0,2.6-.8,2.7,2.7,0,0,0,.9-2.2,2.6,2.6,0,0,0-.9-2.1,4,4,0,0,0-2.6-.7h-3.1v5.8Z" style="fill:#1d1d1b"/><path d="M211,275.8l-4.5,7.4v4.1h-1.1v-4.1l-4.5-7.4h1.2L206,282l3.8-6.2Z" style="fill:#1d1d1b"/><path d="M243.4,281.7h1v4.2a5.9,5.9,0,0,1-1.9,1.1,6.2,6.2,0,0,1-2.3.4,5.2,5.2,0,0,1-3-.8,5.6,5.6,0,0,1-2.2-2.1,5.2,5.2,0,0,1-.8-3,5.1,5.1,0,0,1,.8-2.9,5.6,5.6,0,0,1,2.2-2.1,5.2,5.2,0,0,1,3-.8,5.9,5.9,0,0,1,2.3.4,7.8,7.8,0,0,1,2,1.1l-.7.8-1.6-1a6.9,6.9,0,0,0-2-.3,4.8,4.8,0,0,0-2.4.6,5.2,5.2,0,0,0-1.8,1.8,4.8,4.8,0,0,0-.7,2.4,5.5,5.5,0,0,0,.7,2.5,4.2,4.2,0,0,0,1.8,1.7,4.3,4.3,0,0,0,2.5.7,4.5,4.5,0,0,0,1.6-.3l1.5-.7Z" style="fill:#1d1d1b"/><path d="M256.7,275.8h1.1v10.5h5.1v1h-6.2Z" style="fill:#1d1d1b"/><path d="M282.9,287.3l-1.4-3.1h-6.4l-1.4,3.1h-1.2l5.2-11.5h1.2l5.2,11.5Zm-7.4-4.1H281l-2.7-6.2Z" style="fill:#1d1d1b"/><path d="M294.9,275.8h1.4l4.6,8.6,4.4-8.6h1.5v11.5h-1.1v-10l-4.5,8.8h-.7l-4.5-8.8v10h-1.1Z" style="fill:#1d1d1b"/><path d="M326.9,276.8a3.4,3.4,0,0,1,1.2,2.8,3.4,3.4,0,0,1-1.2,2.9,4.9,4.9,0,0,1-3.3,1.1h-3.1v3.7h-1.2V275.8h4.3A4.8,4.8,0,0,1,326.9,276.8Zm-.8,5a2.7,2.7,0,0,0,.9-2.2,2.6,2.6,0,0,0-.9-2.1,4,4,0,0,0-2.6-.7h-3v5.8h3A4,4,0,0,0,326.1,281.8Z" style="fill:#1d1d1b"/><path d="M339.3,275.8h1.1v11.5h-1.1Z" style="fill:#1d1d1b"/><path d="M361.4,275.8h1.1v11.5h-1.2l-7.2-9.8v9.8H353V275.8h1.2l7.2,9.8Z" style="fill:#1d1d1b"/><path d="M383.2,281.7h1v4.2a6.4,6.4,0,0,1-2,1.1,5.9,5.9,0,0,1-2.3.4,5.4,5.4,0,0,1-3-.8,6.3,6.3,0,0,1-2.2-2.1,6.1,6.1,0,0,1-.8-3,6,6,0,0,1,.8-2.9,6.3,6.3,0,0,1,2.2-2.1,5.8,5.8,0,0,1,3.1-.8,6.2,6.2,0,0,1,2.3.4,7.2,7.2,0,0,1,1.9,1.1l-.7.8a6.2,6.2,0,0,0-1.6-1,5.8,5.8,0,0,0-1.9-.3,5.4,5.4,0,0,0-2.5.6,7.7,7.7,0,0,0-1.8,1.8,4.8,4.8,0,0,0-.6,2.4,5.4,5.4,0,0,0,.6,2.5,5.8,5.8,0,0,0,1.8,1.7,4.5,4.5,0,0,0,2.5.7,5.1,5.1,0,0,0,1.7-.3l1.5-.7Z" style="fill:#1d1d1b"/><path d="M417.5,287.3l-2.5-3.7h-3.9v3.7h-1.2V275.8h4.3a4.9,4.9,0,0,1,3.4,1,3.4,3.4,0,0,1,1.2,2.8,4.3,4.3,0,0,1-.7,2.4,3.9,3.9,0,0,1-2,1.3l2.8,4Zm-3.3-4.7a4,4,0,0,0,2.6-.8,2.7,2.7,0,0,0,.9-2.2,2.6,2.6,0,0,0-.9-2.1,4,4,0,0,0-2.6-.7h-3.1v5.8Z" style="fill:#1d1d1b"/><path d="M430.8,275.8h7.7v1h-6.6v4.1h5.9v1h-5.9v4.4h6.8v1h-7.9Z" style="fill:#1d1d1b"/><path d="M448.8,275.8h8.8v1h-3.8v10.5h-1.2V276.8h-3.8Z" style="fill:#1d1d1b"/><path d="M476.1,287.3l-2.5-3.7h-4v3.7h-1.1V275.8h4.3a4.9,4.9,0,0,1,3.4,1,3.3,3.3,0,0,1,1.1,2.8,4.3,4.3,0,0,1-.6,2.4,3.9,3.9,0,0,1-2,1.3l2.7,4Zm-3.3-4.7a4,4,0,0,0,2.6-.8,2.7,2.7,0,0,0,.9-2.2,2.6,2.6,0,0,0-.9-2.1,4,4,0,0,0-2.6-.7h-3.2v5.8Z" style="fill:#1d1d1b"/><path d="M489.4,275.8h7.7v1h-6.6v4.1h5.9v1h-5.9v4.4h6.8v1h-7.9Z" style="fill:#1d1d1b"/><path d="M517.7,287.3l-1.4-3.1h-6.4l-1.4,3.1h-1.2l5.2-11.5h1.2l5.2,11.5Zm-7.4-4.1h5.5l-2.7-6.2Z" style="fill:#1d1d1b"/><path d="M527,275.8h8.8v1H532v10.5h-1.2V276.8H527Z" style="fill:#1d1d1b"/></svg>