<?xml version="1.0" encoding="iso-8859-1"?>
<!-- Generator: Adobe Illustrator 19.0.0, SVG Export Plug-In . SVG Version: 6.00 Build 0)  -->
<svg version="1.1" id="Capa_1" xmlns="http://www.w3.org/2000/svg" xmlns:xlink="http://www.w3.org/1999/xlink" x="0px" y="0px"
	 viewBox="0 0 511.999 511.999" style="enable-background:new 0 0 511.999 511.999;" xml:space="preserve">
<g>
	<g>
		<g>
			<rect x="156.061" y="411.46" width="30" height="40.889"/>
			<rect x="156.061" y="471.11" width="30" height="40.889"/>
			<rect x="211.67" y="411.46" width="30" height="40.889"/>
			<rect x="211.67" y="471.11" width="30" height="40.889"/>
			<rect x="267.281" y="411.46" width="30" height="40.889"/>
			<rect x="267.281" y="471.11" width="30" height="40.889"/>
			<rect x="322.88" y="411.46" width="30" height="40.889"/>
			<rect x="322.88" y="471.11" width="30" height="40.889"/>
			<rect x="378.49" y="411.46" width="30" height="40.889"/>
			<rect x="378.49" y="471.11" width="30" height="40.889"/>
			<path d="M240.17,125.896h-39.74v78.071c-27.795,21.066-47.199,52.634-52.28,88.741h268.253
				c-5.293-37.616-26.129-70.309-55.804-91.33v-75.482h-41.762V0H71.169v77.334H240.17V125.896z"/>
			<rect x="123.721" y="322.71" width="317.11" height="66.61"/>
		</g>
	</g>
</g>
<g>
</g>
<g>
</g>
<g>
</g>
<g>
</g>
<g>
</g>
<g>
</g>
<g>
</g>
<g>
</g>
<g>
</g>
<g>
</g>
<g>
</g>
<g>
</g>
<g>
</g>
<g>
</g>
<g>
</g>
</svg>
